<?xml version="1.0" encoding="utf-8"?>
<!-- Generated by Mocodo 4.3.2 -->
<svg width="732" height="542" viewBox="0 0 732 542" xmlns="http://www.w3.org/2000/svg">
<rect x="0" y="0" width="732" height="542" fill="#f7f7f7" stroke="none" stroke-width="0"/>

<!-- Association RESERVE -->
<g>
	<line x1="193" y1="85" x2="57" y2="85" stroke="#d6604d" stroke-width="2"/>
	<line x1="57" y1="288" x2="57" y2="85" stroke="#d6604d" stroke-width="2"/>
	<g>
		<path d="M79 60 a14 14 90 0 1 14 14 V85 h-72 V74 a14 14 90 0 1 14 -14" fill="#f4a582" stroke="#f4a582" stroke-width="0"/>
		<path d="M93 85 v11 a14 14 90 0 1 -14 14 H35 a14 14 90 0 1 -14 -14 V85 H72" fill="#fddbc7" stroke="#fddbc7" stroke-width="0"/>
		<rect x="21" y="60" width="72" height="50" fill="none" rx="14" stroke="#d6604d" stroke-width="2"/>
		<line x1="21" y1="85" x2="93" y2="85" stroke="#d6604d" stroke-width="1"/>
		<text x="29" y="77.75" fill="#000000" font-family="Verdana" font-size="12">RÉSERVE</text>
	</g>
	<text x="99" y="102" fill="#2166ac" font-family="Verdana" font-size="12">0,1</text>
	<text x="62" y="221" fill="#2166ac" font-family="Verdana" font-size="12">0,N</text>
</g>

<!-- Association POSSEDE -->
<g>
	<line x1="193" y1="85" x2="339" y2="85" stroke="#d6604d" stroke-width="2"/>
	<line x1="339" y1="288" x2="339" y2="85" stroke="#d6604d" stroke-width="2"/>
	<g>
		<path d="M362 60 a14 14 90 0 1 14 14 V85 h-74 V74 a14 14 90 0 1 14 -14" fill="#f4a582" stroke="#f4a582" stroke-width="0"/>
		<path d="M376 85 v11 a14 14 90 0 1 -14 14 H316 a14 14 90 0 1 -14 -14 V85 H74" fill="#fddbc7" stroke="#fddbc7" stroke-width="0"/>
		<rect x="302" y="60" width="74" height="50" fill="none" rx="14" stroke="#d6604d" stroke-width="2"/>
		<line x1="302" y1="85" x2="376" y2="85" stroke="#d6604d" stroke-width="1"/>
		<text x="310" y="77.75" fill="#000000" font-family="Verdana" font-size="12">POSSÈDE</text>
	</g>
	<text x="266" y="102" fill="#2166ac" font-family="Verdana" font-size="12">0,1</text>
	<text x="312" y="178" fill="#2166ac" font-family="Verdana" font-size="12">0,N</text>
</g>

<!-- Association DISPOSE -->
<g>
	<line x1="634" y1="85" x2="478" y2="85" stroke="#d6604d" stroke-width="2"/>
	<line x1="339" y1="288" x2="478" y2="85" stroke="#d6604d" stroke-width="2"/>
	<g>
		<path d="M499 60 a14 14 90 0 1 14 14 V85 h-70 V74 a14 14 90 0 1 14 -14" fill="#f4a582" stroke="#f4a582" stroke-width="0"/>
		<path d="M513 85 v11 a14 14 90 0 1 -14 14 H457 a14 14 90 0 1 -14 -14 V85 H70" fill="#fddbc7" stroke="#fddbc7" stroke-width="0"/>
		<rect x="443" y="60" width="70" height="50" fill="none" rx="14" stroke="#d6604d" stroke-width="2"/>
		<line x1="443" y1="85" x2="513" y2="85" stroke="#d6604d" stroke-width="1"/>
		<text x="450" y="77.75" fill="#000000" font-family="Verdana" font-size="12">DISPOSE</text>
	</g>
	<text x="519" y="102" fill="#2166ac" font-family="Verdana" font-size="12">1,1</text>
	<text x="405" y="210.68" fill="#2166ac" font-family="Verdana" font-size="12">0,N</text>
</g>

<!-- Association PROPRIETAIRE -->
<g>
	<line x1="339" y1="288" x2="193" y2="288" stroke="#d6604d" stroke-width="2"/>
	<line x1="57" y1="288" x2="193" y2="288" stroke="#d6604d" stroke-width="2"/>
	<g>
		<path d="M232 263 a14 14 90 0 1 14 14 V288 h-106 V277 a14 14 90 0 1 14 -14" fill="#f4a582" stroke="#f4a582" stroke-width="0"/>
		<path d="M246 288 v11 a14 14 90 0 1 -14 14 H154 a14 14 90 0 1 -14 -14 V288 H106" fill="#fddbc7" stroke="#fddbc7" stroke-width="0"/>
		<rect x="140" y="263" width="106" height="50" fill="none" rx="14" stroke="#d6604d" stroke-width="2"/>
		<line x1="140" y1="288" x2="246" y2="288" stroke="#d6604d" stroke-width="1"/>
		<text x="148" y="280.75" fill="#000000" font-family="Verdana" font-size="12">PROPRIÉTAIRE</text>
	</g>
	<text x="252" y="305" fill="#2166ac" font-family="Verdana" font-size="12">1,1</text>
	<text x="110" y="305" fill="#2166ac" font-family="Verdana" font-size="12">0,N</text>
</g>

<!-- Association APPARTIENT -->
<g>
	<line x1="339" y1="288" x2="478" y2="288" stroke="#d6604d" stroke-width="2"/>
	<line x1="634" y1="288" x2="478" y2="288" stroke="#d6604d" stroke-width="2"/>
	<g>
		<path d="M510 263 a14 14 90 0 1 14 14 V288 h-92 V277 a14 14 90 0 1 14 -14" fill="#f4a582" stroke="#f4a582" stroke-width="0"/>
		<path d="M524 288 v11 a14 14 90 0 1 -14 14 H446 a14 14 90 0 1 -14 -14 V288 H92" fill="#fddbc7" stroke="#fddbc7" stroke-width="0"/>
		<rect x="432" y="263" width="92" height="50" fill="none" rx="14" stroke="#d6604d" stroke-width="2"/>
		<line x1="432" y1="288" x2="524" y2="288" stroke="#d6604d" stroke-width="1"/>
		<text x="440" y="280.75" fill="#000000" font-family="Verdana" font-size="12">APPARTIENT</text>
	</g>
	<text x="405" y="305" fill="#2166ac" font-family="Verdana" font-size="12">0,N</text>
	<text x="542" y="305" fill="#2166ac" font-family="Verdana" font-size="12">1,1</text>
</g>

<!-- Association COMMENTE -->
<g>
	<line x1="57" y1="288" x2="57" y2="474" stroke="#d6604d" stroke-width="2"/>
	<line x1="193" y1="474" x2="57" y2="474" stroke="#d6604d" stroke-width="2"/>
	<g>
		<path d="M86 449 a14 14 90 0 1 14 14 V474 h-86 V463 a14 14 90 0 1 14 -14" fill="#f4a582" stroke="#f4a582" stroke-width="0"/>
		<path d="M100 474 v11 a14 14 90 0 1 -14 14 H28 a14 14 90 0 1 -14 -14 V474 H86" fill="#fddbc7" stroke="#fddbc7" stroke-width="0"/>
		<rect x="14" y="449" width="86" height="50" fill="none" rx="14" stroke="#d6604d" stroke-width="2"/>
		<line x1="14" y1="474" x2="100" y2="474" stroke="#d6604d" stroke-width="1"/>
		<text x="22" y="466.75" fill="#000000" font-family="Verdana" font-size="12">COMMENTE</text>
	</g>
	<text x="62" y="364" fill="#2166ac" font-family="Verdana" font-size="12">0,N</text>
	<text x="109" y="491" fill="#2166ac" font-family="Verdana" font-size="12">0,1</text>
</g>

<!-- Association EVALUE -->
<g>
	<line x1="339" y1="288" x2="339" y2="474" stroke="#d6604d" stroke-width="2"/>
	<line x1="193" y1="474" x2="339" y2="474" stroke="#d6604d" stroke-width="2"/>
	<g>
		<path d="M356 449 a14 14 90 0 1 14 14 V474 h-62 V463 a14 14 90 0 1 14 -14" fill="#f4a582" stroke="#f4a582" stroke-width="0"/>
		<path d="M370 474 v11 a14 14 90 0 1 -14 14 H322 a14 14 90 0 1 -14 -14 V474 H62" fill="#fddbc7" stroke="#fddbc7" stroke-width="0"/>
		<rect x="308" y="449" width="62" height="50" fill="none" rx="14" stroke="#d6604d" stroke-width="2"/>
		<line x1="308" y1="474" x2="370" y2="474" stroke="#d6604d" stroke-width="1"/>
		<text x="315" y="466.75" fill="#000000" font-family="Verdana" font-size="12">ÉVALUE</text>
	</g>
	<text x="344" y="407" fill="#2166ac" font-family="Verdana" font-size="12">0,N</text>
	<text x="256" y="491" fill="#2166ac" font-family="Verdana" font-size="12">1,1</text>
</g>

<!-- Entity RESERVATION -->
<g>
	<g>
		<rect x="125" y="9" width="136" height="25" fill="#92c5de" stroke="none" stroke-width="0" opacity="1"/>
		<rect x="125" y="34" width="136" height="127" fill="#d1e5f0" stroke="none" stroke-width="0" opacity="1"/>
		<rect x="125" y="9" width="136" height="152" fill="none" stroke="#4393c3" stroke-width="2" opacity="1"/>
		<line x1="125" y1="34" x2="261" y2="34" stroke="#4393c3" stroke-width="1"/>
	</g>
	<text x="149" y="26.75" fill="#000000" font-family="Verdana" font-size="12">RÉSERVATION</text>
	<text x="130" y="51.8" fill="#000000" font-family="Verdana" font-size="12">ref. réservation</text>
	<line x1="130" y1="54" x2="224" y2="54" stroke="#000000" stroke-width="1"/>
	<text x="130" y="68.8" fill="#000000" font-family="Verdana" font-size="12">date arrivée</text>
	<text x="130" y="85.8" fill="#000000" font-family="Verdana" font-size="12">date départ</text>
	<text x="130" y="102.8" fill="#000000" font-family="Verdana" font-size="12">montant</text>
	<text x="130" y="119.8" fill="#000000" font-family="Verdana" font-size="12">nombre de personne</text>
	<text x="130" y="136.8" fill="#000000" font-family="Verdana" font-size="12">statut</text>
	<text x="130" y="153.8" fill="#000000" font-family="Verdana" font-size="12">raison statut</text>
</g>

<!-- Entity DISPONIBILITE_PROPRIETE -->
<g>
	<g>
		<rect x="545" y="43" width="178" height="25" fill="#92c5de" stroke="none" stroke-width="0" opacity="1"/>
		<rect x="545" y="68" width="178" height="59" fill="#d1e5f0" stroke="none" stroke-width="0" opacity="1"/>
		<rect x="545" y="43" width="178" height="84" fill="none" stroke="#4393c3" stroke-width="2" opacity="1"/>
		<line x1="545" y1="68" x2="723" y2="68" stroke="#4393c3" stroke-width="1"/>
	</g>
	<text x="551" y="60.75" fill="#000000" font-family="Verdana" font-size="12">DISPONIBILITÉ PROPRIÉTÉ</text>
	<text x="550" y="85.8" fill="#000000" font-family="Verdana" font-size="12">ref. disponibilité propriété</text>
	<line x1="550" y1="88" x2="707" y2="88" stroke="#000000" stroke-width="1"/>
	<text x="550" y="102.8" fill="#000000" font-family="Verdana" font-size="12">date début</text>
	<text x="550" y="119.8" fill="#000000" font-family="Verdana" font-size="12">date fin</text>
</g>

<!-- Entity UTILISATEUR -->
<g>
	<g>
		<rect x="9" y="229" width="96" height="25" fill="#92c5de" stroke="none" stroke-width="0" opacity="1"/>
		<rect x="9" y="254" width="96" height="93" fill="#d1e5f0" stroke="none" stroke-width="0" opacity="1"/>
		<rect x="9" y="229" width="96" height="118" fill="none" stroke="#4393c3" stroke-width="2" opacity="1"/>
		<line x1="9" y1="254" x2="105" y2="254" stroke="#4393c3" stroke-width="1"/>
	</g>
	<text x="16" y="246.75" fill="#000000" font-family="Verdana" font-size="12">UTILISATEUR</text>
	<text x="14" y="271.8" fill="#000000" font-family="Verdana" font-size="12">ref. utilisateur</text>
	<line x1="14" y1="274" x2="100" y2="274" stroke="#000000" stroke-width="1"/>
	<text x="14" y="288.8" fill="#000000" font-family="Verdana" font-size="12">nom</text>
	<text x="14" y="305.8" fill="#000000" font-family="Verdana" font-size="12">email</text>
	<text x="14" y="322.8" fill="#000000" font-family="Verdana" font-size="12">mot de passe</text>
	<text x="14" y="339.8" fill="#000000" font-family="Verdana" font-size="12">role</text>
</g>

<!-- Entity PROPRIETE -->
<g>
	<g>
		<rect x="278" y="186" width="122" height="25" fill="#92c5de" stroke="none" stroke-width="0" opacity="1"/>
		<rect x="278" y="211" width="122" height="179" fill="#d1e5f0" stroke="none" stroke-width="0" opacity="1"/>
		<rect x="278" y="186" width="122" height="204" fill="none" stroke="#4393c3" stroke-width="2" opacity="1"/>
		<line x1="278" y1="211" x2="400" y2="211" stroke="#4393c3" stroke-width="1"/>
	</g>
	<text x="305" y="203.75" fill="#000000" font-family="Verdana" font-size="12">PROPRIÉTÉ</text>
	<text x="283" y="228.8" fill="#000000" font-family="Verdana" font-size="12">ref. propriété</text>
	<line x1="283" y1="231" x2="364" y2="231" stroke="#000000" stroke-width="1"/>
	<text x="283" y="245.8" fill="#000000" font-family="Verdana" font-size="12">titre</text>
	<text x="283" y="262.8" fill="#000000" font-family="Verdana" font-size="12">localisation</text>
	<text x="283" y="279.8" fill="#000000" font-family="Verdana" font-size="12">description</text>
	<text x="283" y="296.8" fill="#000000" font-family="Verdana" font-size="12">prix par nuit</text>
	<text x="283" y="313.8" fill="#000000" font-family="Verdana" font-size="12">statut</text>
	<text x="283" y="330.8" fill="#000000" font-family="Verdana" font-size="12">surface</text>
	<text x="283" y="347.8" fill="#000000" font-family="Verdana" font-size="12">capacité</text>
	<text x="283" y="364.8" fill="#000000" font-family="Verdana" font-size="12">type</text>
	<text x="283" y="381.8" fill="#000000" font-family="Verdana" font-size="12">animaux autorisés</text>
</g>

<!-- Entity IMAGE_PROPRIETE -->
<g>
	<g>
		<rect x="568" y="229" width="132" height="25" fill="#92c5de" stroke="none" stroke-width="0" opacity="1"/>
		<rect x="568" y="254" width="132" height="93" fill="#d1e5f0" stroke="none" stroke-width="0" opacity="1"/>
		<rect x="568" y="229" width="132" height="118" fill="none" stroke="#4393c3" stroke-width="2" opacity="1"/>
		<line x1="568" y1="254" x2="700" y2="254" stroke="#4393c3" stroke-width="1"/>
	</g>
	<text x="577" y="246.75" fill="#000000" font-family="Verdana" font-size="12">IMAGE PROPRIÉTÉ</text>
	<text x="573" y="271.8" fill="#000000" font-family="Verdana" font-size="12">ref. image propriété</text>
	<line x1="573" y1="274" x2="695" y2="274" stroke="#000000" stroke-width="1"/>
	<text x="573" y="288.8" fill="#000000" font-family="Verdana" font-size="12">url</text>
	<text x="573" y="305.8" fill="#000000" font-family="Verdana" font-size="12">mimetype</text>
	<text x="573" y="322.8" fill="#000000" font-family="Verdana" font-size="12">alt</text>
	<text x="573" y="339.8" fill="#000000" font-family="Verdana" font-size="12">size</text>
</g>

<!-- Entity COMMENTAIRE -->
<g>
	<g>
		<rect x="135" y="415" width="116" height="25" fill="#92c5de" stroke="none" stroke-width="0" opacity="1"/>
		<rect x="135" y="440" width="116" height="93" fill="#d1e5f0" stroke="none" stroke-width="0" opacity="1"/>
		<rect x="135" y="415" width="116" height="118" fill="none" stroke="#4393c3" stroke-width="2" opacity="1"/>
		<line x1="135" y1="440" x2="251" y2="440" stroke="#4393c3" stroke-width="1"/>
	</g>
	<text x="147" y="432.75" fill="#000000" font-family="Verdana" font-size="12">COMMENTAIRE</text>
	<text x="140" y="457.8" fill="#000000" font-family="Verdana" font-size="12">ref. commentaire</text>
	<line x1="140" y1="460" x2="245" y2="460" stroke="#000000" stroke-width="1"/>
	<text x="140" y="474.8" fill="#000000" font-family="Verdana" font-size="12">commentaire</text>
	<text x="140" y="491.8" fill="#000000" font-family="Verdana" font-size="12">note</text>
	<text x="140" y="508.8" fill="#000000" font-family="Verdana" font-size="12">avis vérifié</text>
	<text x="140" y="525.8" fill="#000000" font-family="Verdana" font-size="12">statut</text>
</g>
</svg>